<svg viewBox="0 0 100 100" xmlns="http://www.w3.org/2000/svg">
	<path d="M100,19a42,42,0,0,1-11.8,3.2,19.9,19.9,0,0,0,9-11.3,40.7,40.7,0,0,1-13,4.9,20.7,20.7,0,0,0-15-6.4A20.5,20.5,0,0,0,48.7,29.9a24.2,24.2,0,0,0,.5,4.7A58.4,58.4,0,0,1,7,13.1a20.5,20.5,0,0,0,6.3,27.4A19.7,19.7,0,0,1,4,37.9v.3A20.6,20.6,0,0,0,20.5,58.3a19.5,19.5,0,0,1-5.4.7,24.7,24.7,0,0,1-3.9-.3A20.5,20.5,0,0,0,30.4,72.9,41.2,41.2,0,0,1,4.9,81.7,39.1,39.1,0,0,1,0,81.4a58.3,58.3,0,0,0,31.4,9.2c37.8,0,58.4-31.2,58.4-58.3V29.6A41.1,41.1,0,0,0,100,19Z"/>
</svg>
